<svg viewBox="0 0 300 180" fill="currentColor" xmlns="http://www.w3.org/2000/svg">
  <g clip-path="url(#clip0_1112_571)">
    <path d="M299.956 95.712c-19.731-.096-23.013-.438-28.375 2.412v-2.412c-23.582 0-27.851-.822-33.782 2.508v-2.508h-40.707v2.46c-5.938-3.138-11.144-2.46-39.407-2.46v2.7c-3.282-1.788-7.551-2.7-12.651-2.7H114.84c-1.825 1.83-6.506 6.6-8.175 8.292-6.613-6.798-5.463-5.592-8.063-8.292h-43.27v44.502h42.689c2.805-2.784 5.597-5.58 8.375-8.388 6.613 6.894 5.363 5.64 8.019 8.388h25.457c0-7.086.05-4.002.05-11.088 5.987.096 12.65-.102 17.856-2.994 0 6.702-.05 8.244-.05 14.082h20.613c0-8.922.05-3.57.05-12.198 3.232 0 4.013 0 4.894.048.056.624 0 0 0 12.15 79.545 0 75.952.528 81.577-2.172v2.172c18.113 0 28.525 1.062 35.138-2.94v19.584c.006 12.78-11.181 23.142-24.982 23.142H25.094c-13.8 0-24.988-10.368-24.988-23.142V82.644H13.95c2.188-4.866 1.144-2.556 3.332-7.38h10c2.187 4.824 1.144 2.508 3.325 7.38h27.538v-5.496c1.15 2.412.575 1.2 2.656 5.496h15.357c1.25-2.652 1.356-2.796 2.656-5.496v5.496h70.539V70.542c3.331 0 4.163-.048 5.1.096 0 0-.106 5.256.05 11.958h34.626v-4.29c3.85 2.844 9.05 4.29 15.457 4.29h13.95c2.187-4.872 1.144-2.556 3.331-7.38h9.894c3.381 7.236.1.24 3.438 7.38h27.481v-10.56c6.144 9.498 4.063 6.222 6.876 10.56h21.65V38.238h-20.763v8.874c-6.35-9.738-3.281-5.016-5.831-8.874h-22.544v9.942c-3.232-7.044-2.394-5.208-4.582-9.936h-16.869c-.206 0-1.194.096-1.194-.144h-14.375c-6.656 0-12.019 1.542-15.975 4.482V38.1h-20.77v2.556c-5.625-2.94-10.775-2.46-33.525-2.556-.056 0-6.038-.048-6.038 0H75.114c-1.294 2.94-3.538 7.908-6.556 14.46-1.457-2.886-5.725-11.472-7.232-14.46h-23.95v10.176c-3.85-8.394-2.444-5.304-4.688-10.176H12.031C10.258 41.904 4.895 53.526 0 64.08V23.142C0 10.362 11.188 0 24.988 0h249.88c13.788 0 24.982 10.368 24.982 23.142v72.57h.106ZM202.817 56.85c-.157.096-.732 1.062-.732 3.66 0 2.898.469 3.72.575 3.816.1.048.569.24 1.769.24l3.8-8.148c-.575 0-1.093-.048-1.612-.048-2.919 0-3.644.336-3.8.48Zm-10.363 63.114c4.794 1.59 5.725 4.578 5.725 8.868l-.05 6.66h-8.638l.05-5.55c0-5.688-1.981-6.654-7.706-6.654h-9.163l-.05 12.198h-8.644l.057-33.414h20.506c6.769 0 14.107 1.11 14.107 9.018-.05 3.66-2.188 7.38-6.188 8.874h-.006Zm-3.275-7.428c0-3.084-2.919-3.564-5.575-3.564h-10.932v7.518h10.776c2.918 0 5.731-.624 5.731-3.954Zm94.583-3.42h15.669v-7.044h-17.125c-6.663 0-12.388 3.18-12.388 9.984 0 15.912 22.226 6.168 22.226 13.212 0 2.46-2.238 3.084-4.376 3.084h-16.656l-.05 7.14h16.657c4.375 0 9.162-.87 11.712-4.296v-12.438c-5.462-6.66-20.456-.63-20.456-6.51 0-2.796 2.393-3.132 4.787-3.132Zm-51.638-.144v-6.9h-28.739l-.05 33.42h28.739l.05-6.9-20.095-.144v-6.654h19.732v-6.798h-19.682v-6.024h20.045Zm21.969 19.332H237.33l-.05 7.14h16.757c7.706 0 13.644-2.7 13.644-10.614 0-16.008-22.332-5.4-22.332-12.678 0-2.7 2.55-3.084 4.787-3.084h15.826v-7.044H248.68c-6.669 0-12.238 3.18-12.238 9.984 0 15.912 22.232 6.024 22.232 13.212-.056 2.604-2.45 3.084-4.581 3.084ZM213.436 51.78c-9.063-.144-17.282-1.98-17.282 9.498 0 5.688 1.456 9.6 8.375 9.6h3.857l12.231-26.28h12.913l14.525 31.53V44.604h13.169l15.151 23.19v-23.19h8.793v33.27h-12.281l-16.25-25.026v25.02h-17.538l-3.438-7.374h-17.844l-3.338 7.38h-9.993c-11.869 0-17.176-5.694-17.176-16.398 0-11.232 5.463-17.016 17.701-17.016h8.375v7.32h.056-.006Zm7.437 11.814h11.876l-5.832-13.308-6.037 13.308h-.007Zm-37.788-19.092h-8.8v33.414h8.8v-33.42.006Zm-19.832 17.982c4.944 1.59 5.726 4.44 5.726 8.874v6.51h-8.644c-.157-7.14 1.875-12.102-7.701-12.102h-9.375v12.102h-8.537v-33.42l20.356.15c6.925 0 14.263.96 14.263 8.868.056 3.858-2.238 7.572-6.088 9.018Zm-3.487-7.38c0-3.084-2.919-3.564-5.575-3.564h-10.932v7.38h10.775c2.969 0 5.732-.63 5.732-3.81v-.006ZM128.79 51.54v-7.032H99.896v33.414h28.894v-6.9h-20.25V64.38h19.675v-6.804H108.54V51.54h20.25ZM84.752 77.916V51.78l-12.5 26.136h-7.594l-12.5-26.136v26.136H34.562l-3.331-7.38H13.275l-3.331 7.38H.625l15.463-33.42h12.75l14.625 31.68v-31.68h14.113L68.87 67.164l10.257-22.662h14.369v33.414h-8.75.006ZM28.163 63.6l-5.988-13.308-5.83 13.308h11.818Zm131.703 49.422c0 13.452-15.826 11.232-25.663 11.232l-.05 11.232H117.39l-10.625-11.088-11.082 11.088H61.64l.05-33.414h34.62l10.668 10.998 10.938-10.992h27.432c8.119 0 14.519 2.598 14.519 10.944Zm-58.664 5.688-9.325-9.738H70.164v6.024h18.9v6.804h-18.9v6.654h21.138l9.894-9.738.006-.006Zm24.363-13.068-13.175 13.212 13.175 13.548v-26.76Zm25.138 7.38c0-2.94-2.394-4.05-5.312-4.05h-11.188v8.484h11.038c3.068 0 5.462-1.35 5.462-4.44v.006Z" fill="#0070CF"/>
  </g>
  <defs>
    <clipPath id="clip0_1112_571">
      <path fill="#fff" d="M0 0h300v180H0z"/>
    </clipPath>
  </defs>
</svg>