<svg viewBox="0 0 40 40" fill="currentColor" xmlns="http://www.w3.org/2000/svg"><path d="M20.767 37.673a1.104 1.104 0 0 1-1.567 0l-15.867-16A11.583 11.583 0 0 1 0 13.574c.027-2.336.744-4.61 2.058-6.53a11.591 11.591 0 0 1 5.316-4.247 11.432 11.432 0 0 1 6.751-.506A11.533 11.533 0 0 1 20 5.697a11.533 11.533 0 0 1 5.875-3.407c2.25-.517 4.601-.34 6.751.506a11.59 11.59 0 0 1 5.316 4.246A11.813 11.813 0 0 1 40 13.573a11.568 11.568 0 0 1-.871 4.38 11.453 11.453 0 0 1-2.462 3.71l-15.9 16.01ZM11.544 5.37a8.125 8.125 0 0 0-5.776 2.386 8.332 8.332 0 0 0-2.435 5.816 8.178 8.178 0 0 0 .602 3.105c.4.984.989 1.88 1.732 2.633L20 33.724 34.344 19.3a8.176 8.176 0 0 0 2.323-5.727 8.392 8.392 0 0 0-1.71-4.994 8.218 8.218 0 0 0-4.334-2.946 8.126 8.126 0 0 0-5.211.29 8.25 8.25 0 0 0-3.99 3.408L20 11.705l-1.422-2.374a8.235 8.235 0 0 0-3.003-2.915 8.109 8.109 0 0 0-4.03-1.045Z"/></svg>